<svg id="Layer_1" enable-background="new 0 0 512 512" height="50" viewBox="0 0 512 512" width="50" xmlns="http://www.w3.org/2000/svg" xmlns:xlink="http://www.w3.org/1999/xlink"><linearGradient id="SVGID_1_" gradientUnits="userSpaceOnUse" x1="256" x2="256" y1="0" y2="512"><stop offset="0" stop-color="#01f1fe"/><stop offset="1" stop-color="#4fc3f7"/></linearGradient><path clip-rule="evenodd" d="m256 512c-141.159 0-256.001-114.841-256.001-256s114.842-256 256.001-256 256.001 114.841 256.001 256-114.842 256-256.001 256zm138.483-179.312v-153.373l-39.125 28.12v97.132zm-65.609.695v-154.765c0-3.157-2.568-5.725-5.724-5.725h-199.91c-3.157 0-5.725 2.569-5.725 5.725v154.765c0 3.157 2.569 5.725 5.725 5.725h199.91c3.156 0 5.724-2.569 5.724-5.725zm92.091-179.891v205.021c0 4.967-2.779 9.516-7.2 11.782-1.905.977-3.977 1.459-6.04 1.459-2.723 0-5.434-.84-7.728-2.49l-44.851-32.235c-1.817 16.048-15.469 28.562-31.995 28.562h-199.911c-17.76 0-32.207-14.449-32.207-32.208v-154.764c0-17.759 14.448-32.208 32.207-32.208h199.91c16.526 0 30.178 12.513 31.995 28.561l44.851-32.235c4.034-2.9 9.352-3.299 13.77-1.031 4.42 2.268 7.2 6.818 7.199 11.786z" fill="url(#SVGID_1_)" fill-rule="evenodd"/></svg>